<svg id="图层_1" data-name="图层 1" xmlns="http://www.w3.org/2000/svg" viewBox="0 0 75 75"><defs><style>.cls-1{fill:#fff;}</style></defs><title>未标题-3</title><circle cx="37.5" cy="37.5" r="37.5"/><path class="cls-1" d="M165.11,59.13c-2.08,0-4.17-1.82-6.2-5.39a21.11,21.11,0,0,1-3.09-10.53,12.48,12.48,0,0,1,2.33-7.81,7.27,7.27,0,0,1,5.89-3,8.6,8.6,0,0,1,1.72.19,7.57,7.57,0,0,1,2,.72,11.26,11.26,0,0,0,1.84.84,3.71,3.71,0,0,0,1.15.24,7.8,7.8,0,0,0,1.46-.21,7,7,0,0,0,2-.8,14.27,14.27,0,0,1,1.76-.85,4.23,4.23,0,0,1,1.49-.28,7.68,7.68,0,0,1,4.42,1.34,9.37,9.37,0,0,1,2.07,2A14.69,14.69,0,0,0,181.55,38a7.62,7.62,0,0,0-1.41,4.43,8.21,8.21,0,0,0,1.49,4.79,6.88,6.88,0,0,0,3.29,2.68A22.38,22.38,0,0,1,182.37,55c-1.79,2.71-3.58,4.08-5.31,4.08a9.85,9.85,0,0,1-2.92-.67,9.54,9.54,0,0,0-3.22-.68,7.77,7.77,0,0,0-3,.72A8,8,0,0,1,165.11,59.13Zm5.13-26.92a9.31,9.31,0,0,1,1.61-5.2A8.29,8.29,0,0,1,176.92,24c0,.16.06.27.08.35v.38a8.14,8.14,0,0,1-.6,2.84,8.74,8.74,0,0,1-1.93,2.84,6.64,6.64,0,0,1-2.23,1.51c-.23.06-.53.13-.89.19S170.61,32.17,170.24,32.21Z" transform="translate(-132.87 -4.04)"/></svg>